Coordinates
version=1
nRows=28
nColumns=33
inDegrees=yes

Units are S.I. units (second, meters, Newtons, ...)
Angles are in degrees.

endheader
time	ground_thorax_rot_x	ground_thorax_rot_y	ground_thorax_rot_z	ground_thorax_tx	ground_thorax_ty	ground_thorax_tz	clav_prot_r	clav_elev_r	scapula_abduction_r	scapula_elevation_r	scapula_upward_rot_r	scapula_winging_r	shoulder_elv_r	plane_of_elev_r	axial_rot_r	elbow_flexion_r	pro_sup_r	wrist_flex_r	wrist_dev_r	clav_prot_l	clav_elev_l	scapula_abduction_l	scapula_elevation_l	scapula_upward_rot_l	scapula_winging_l	shoulder_elv_l	plane_of_elev_l	axial_rot_l	elbow_flexion_l	pro_sup_l	wrist_flex_l	wrist_dev_l	
1.2100	-38.582178	0.146643	0.487722	-1.069614	810.781081	-2.616217	-7.456917	-45.000000	45.000000	-45.000000	32.291408	-3708.185127	-1740.441761	19.949474	-180.000000	1446.574139	-121.272458	14.129280	11.922888	16.252170	42.328423	-45.000000	-41.980798	-25.209157	2596.153064	-293.292585	25.262803	-21.833707	1807.663042	17.498695	13.718553	-19.028596	
1.2200	-38.233056	-0.449099	0.850893	1.521425	808.224049	-2.259749	-6.952639	-45.000000	45.000000	-45.000000	30.646005	-3707.576515	-1740.578037	19.968237	-180.000000	1446.609987	-122.592573	13.849011	11.793493	16.079897	41.551340	-45.000000	-41.149847	-25.284395	2596.259589	-293.414287	25.200724	-22.620119	1807.302520	16.818982	13.812015	-18.796570	
1.2300	-37.923494	-1.027549	1.188875	4.016579	805.784261	-1.896241	-6.479783	-45.000000	45.000000	-45.000000	29.137430	-3707.004497	-1740.697412	19.935147	-180.000000	1446.642385	-123.949135	13.582737	11.667692	15.994550	40.921139	-45.000000	-40.424671	-25.297793	2596.363973	-293.639105	25.159956	-23.346363	1806.905781	16.192874	13.858941	-18.571402	
1.2400	-37.660402	-1.463899	1.360376	6.314377	803.586117	-1.517916	-6.159266	-45.000000	45.000000	-45.000000	27.984643	-3706.504331	-1740.804836	19.886575	-180.000000	1446.709926	-125.252575	13.333398	11.520431	15.864348	40.387904	-45.000000	-39.758352	-25.154780	2596.401595	-293.776245	25.064196	-23.933084	1806.570556	15.803729	13.910771	-18.385167	
1.2500	-37.440227	-1.819992	1.428467	8.389714	801.652302	-1.127431	-5.928257	-45.000000	45.000000	-45.000000	27.060624	-3706.057914	-1740.897179	19.824031	-180.000000	1446.787019	-126.463873	13.111620	11.365848	15.729717	39.938316	-45.000000	-39.165906	-24.929980	2596.400454	-293.868325	24.945052	-24.405201	1806.270466	15.611014	13.944820	-18.231192	
1.2600	-37.264539	-2.101362	1.394389	10.204410	800.016093	-0.729081	-5.780006	-45.000000	45.000000	-45.000000	26.362424	-3705.671656	-1740.973664	19.753288	-180.000000	1446.866086	-127.528414	12.928403	11.214699	15.600897	39.580854	-45.000000	-38.661985	-24.639934	2596.370374	-293.926723	24.816803	-24.759257	1806.007852	15.606393	13.950306	-18.111643	
1.2700	-37.126592	-2.343201	1.296457	11.741926	798.675832	-0.332830	-5.678805	-45.000000	45.000000	-45.000000	25.808852	-3705.334532	-1741.035608	19.683274	-180.000000	1446.935462	-128.393557	12.786082	11.076325	15.479817	39.299099	-45.000000	-38.239555	-24.333957	2596.330093	-293.955726	24.692677	-25.013011	1805.778020	15.744468	13.920897	-18.023394	
1.2800	-37.016548	-2.572218	1.163364	12.996946	797.608221	0.047323	-5.599071	-45.000000	45.000000	-45.000000	25.347921	-3705.045158	-1741.081110	19.624154	-180.000000	1446.984356	-129.020030	12.690347	10.963028	15.377529	39.087800	-45.000000	-37.895581	-24.050925	2596.302356	-293.977040	24.590932	-25.182895	1805.578550	15.966512	13.845325	-17.963069	
1.2900	-36.937155	-2.782064	0.994949	13.966217	796.781240	0.395436	-5.535068	-45.000000	45.000000	-45.000000	24.970164	-3704.806820	-1741.122209	19.578500	-180.000000	1447.011776	-129.382469	12.638820	10.878304	15.286740	38.945396	-45.000000	-37.632360	-23.798089	2596.285204	-293.982913	24.517496	-25.278626	1805.405270	16.238799	13.739816	-17.927955	
1.3000	-36.888646	-2.970004	0.794663	14.648313	796.157091	0.695352	-5.497966	-45.000000	45.000000	-45.000000	24.707779	-3704.631365	-1741.149873	19.535395	-180.000000	1447.021421	-129.485773	12.625538	10.820651	15.217849	38.903613	-45.000000	-37.456119	-23.560102	2596.284820	-293.998956	24.471099	-25.293841	1805.253207	16.529545	13.598925	-17.917086	
1.3100	-36.877805	-3.126750	0.561853	15.043418	795.695674	0.932338	-5.477337	-45.000000	45.000000	-45.000000	24.533275	-3704.519367	-1741.181778	19.498887	-180.000000	1447.011557	-129.333457	12.651845	10.792810	15.164654	38.931351	-45.000000	-37.371020	-23.352931	2596.298388	-294.011247	24.463092	-25.245185	1805.120680	16.825029	13.446698	-17.927751	
1.3200	-36.891165	-3.275032	0.326449	15.153174	795.357579	1.094297	-5.467314	-45.000000	45.000000	-45.000000	24.410536	-3704.457862	-1741.202683	19.467695	-180.000000	1446.983215	-128.911129	12.704468	10.782152	15.120154	38.998348	-45.000000	-37.346125	-23.194736	2596.330992	-294.008190	24.472411	-25.136179	1805.009049	17.115866	13.286280	-17.956587	
1.3300	-36.930492	-3.410482	0.092888	14.981225	795.106854	1.172576	-5.458815	-45.000000	45.000000	-45.000000	24.321625	-3704.447895	-1741.218976	19.443590	-180.000000	1446.937502	-128.219482	12.786907	10.791247	15.089245	39.085379	-44.999999	-37.379314	-23.089244	2596.381869	-293.992434	24.505956	-24.977761	1804.906269	17.393831	13.128608	-17.998346	
1.3400	-36.983944	-3.549835	-0.117795	14.532924	794.912790	1.162237	-5.457082	-45.000000	45.000000	-45.000000	24.259496	-3704.471275	-1741.208141	19.410031	-180.000000	1446.875784	-127.261681	12.874082	10.798012	15.072786	39.197696	-44.999998	-37.448382	-23.033843	2596.449097	-293.968566	24.533920	-24.770374	1804.813254	17.649326	12.975539	-18.048056	
1.3500	-37.047379	-3.687838	-0.304171	13.815566	794.750926	1.062300	-5.449491	-45.000000	45.000000	-45.000000	24.203882	-3704.533631	-1741.175152	19.382884	-180.000000	1446.800454	-126.047464	12.981676	10.815400	15.072147	39.310898	-44.999997	-37.544487	-23.032042	2596.538879	-293.942200	24.570344	-24.530985	1804.723053	17.871890	12.826024	-18.101007	
1.3600	-37.110768	-3.835520	-0.455548	12.837149	794.603045	0.875712	-5.435695	-45.000000	45.000000	-45.000000	24.133517	-3704.605321	-1741.107659	19.346932	-180.000000	1446.704536	-124.575534	13.081130	10.817524	15.084538	39.424726	-44.999995	-37.651334	-23.089560	2596.641273	-293.902392	24.589648	-24.275433	1804.641754	18.056054	12.695323	-18.151007	
1.3700	-37.179109	-3.984198	-0.575312	11.605577	794.456925	0.609876	-5.402788	-45.000000	44.999999	-45.000000	24.036307	-3704.702135	-1741.019467	19.315005	-180.000000	1446.588406	-122.837170	13.195538	10.823982	15.115084	39.537262	-44.999991	-37.779615	-23.212434	2596.754633	-293.857503	24.610119	-24.021143	1804.563009	18.194517	12.572301	-18.195655	
1.3800	-37.251659	-4.138155	-0.659577	10.126298	794.305430	0.276703	-5.352944	-45.000000	44.999999	-45.000000	23.908634	-3704.815545	-1740.906578	19.279162	-180.000000	1446.450401	-120.812249	13.314332	10.822977	15.166843	39.651433	-44.999985	-37.927953	-23.401493	2596.870808	-293.806232	24.620862	-23.773463	1804.486449	18.286163	12.464615	-18.228496	
1.3900	-37.329412	-4.286302	-0.719081	8.401828	794.145781	-0.107363	-5.284760	-45.000000	44.999998	-45.000000	23.759289	-3704.960467	-1740.778520	19.250620	-180.000000	1446.293231	-118.502614	13.456626	10.831577	15.237935	39.775124	-44.999972	-38.096322	-23.652322	2596.990496	-293.748620	24.634908	-23.542560	1804.414283	18.332340	12.354701	-18.252645	
1.4000	-37.414601	-4.457449	-0.724472	6.430961	793.978279	-0.523135	-5.179646	-45.000000	44.999996	-45.000000	23.537944	-3705.127607	-1740.636588	19.220917	-180.000000	1446.093648	-115.762912	13.616971	10.833557	15.356859	39.923177	-44.999950	-38.295826	-24.017858	2597.093411	-293.675525	24.636215	-23.322189	1804.359216	18.336973	12.249028	-18.263991	
1.4100	-37.500359	-4.624730	-0.708554	4.210522	793.805544	-0.950537	-5.067927	-45.000000	44.999992	-45.000000	23.313656	-3705.330083	-1740.476583	19.190098	-180.000000	1445.863985	-112.670893	13.798016	10.833503	15.482311	40.081216	-44.999911	-38.513245	-24.424382	2597.190937	-293.608560	24.623490	-23.136363	1804.323545	18.315857	12.134840	-18.272286	
1.4200	-37.581315	-4.783827	-0.678806	1.736386	793.631036	-1.371893	-4.954997	-45.000000	44.999986	-45.000000	23.098928	-3705.572837	-1740.292283	19.169360	-180.000000	1445.615976	-109.323933	13.995271	10.824380	15.619390	40.227801	-44.999840	-38.743144	-24.848205	2597.295866	-293.568710	24.603102	-23.014582	1804.303682	18.286865	12.019820	-18.274000	
1.4300	-37.648822	-4.899179	-0.683600	-0.993667	793.458349	-1.773903	-4.870964	-45.000000	44.999975	-45.000000	22.959448	-3705.852450	-1740.081628	19.166070	-180.000000	1445.387351	-106.001716	14.195577	10.808032	15.725067	40.364314	-44.999714	-38.954190	-25.199838	2597.425533	-293.555697	24.571961	-23.003166	1804.294808	18.272707	11.898984	-18.273675	
1.4400	-37.715456	-5.043537	-0.641442	-3.979246	793.290377	-2.149564	-4.759120	-45.000000	44.999955	-45.000000	22.756444	-3706.162329	-1739.850264	19.175800	-180.000000	1445.167187	-102.709548	14.394025	10.777651	15.862407	40.493481	-44.999488	-39.172707	-25.650158	2597.562519	-293.542359	24.535848	-23.107135	1804.312168	18.273496	11.762534	-18.266680	
1.4500	-37.780262	-5.200162	-0.574886	-7.217218	793.129467	-2.497262	-4.638733	-45.000000	44.999920	-45.000000	22.523223	-3706.496277	-1739.599750	19.194543	-180.000000	1444.978342	-99.615044	14.576429	10.733022	15.999685	40.592154	-44.999083	-39.388174	-26.163598	2597.709194	-293.526785	24.495379	-23.325030	1804.348110	18.295030	11.616613	-18.257741	
1.4600	-37.848218	-5.417294	-0.429949	-10.703405	792.977432	-2.819715	-4.464540	-45.000000	44.999857	-45.000000	22.147223	-3706.847246	-1739.337622	19.229714	-180.000000	1444.806613	-96.678324	14.747998	10.673650	16.199511	40.647497	-44.998357	-39.614279	-26.846465	2597.857017	-293.503241	24.462013	-23.596114	1804.398755	18.320536	11.465798	-18.248379	
1.4700	-37.917581	-5.637768	-0.280274	-14.433108	792.836148	-3.121666	-4.284681	-45.000000	44.999744	-45.000000	21.740284	-3707.193904	-1739.060982	19.257938	-180.000000	1444.660290	-93.997415	14.897220	10.600333	16.387757	40.689000	-44.997057	-39.824681	-27.567445	2598.013242	-293.464143	24.411475	-23.948551	1804.467344	18.359689	11.320443	-18.243893	
1.4800	-37.998260	-5.922117	-0.052845	-18.402316	792.707877	-3.408536	-4.026328	-45.000000	44.999542	-45.000000	21.128400	-3707.527602	-1738.792392	19.290273	-180.000000	1444.508160	-91.446828	15.031684	10.511708	16.646360	40.708004	-44.994730	-40.055899	-28.479178	2598.145968	-293.400527	24.355783	-24.282117	1804.557580	18.384326	11.193949	-18.248378	
